<mxfile host="65bd71144e">
    <diagram id="qWVUn7iMk5tPWoX-ER_k" name="Page-1">
        <mxGraphModel dx="1093" dy="590" grid="1" gridSize="10" guides="1" tooltips="1" connect="1" arrows="1" fold="1" page="1" pageScale="1" pageWidth="827" pageHeight="1169" math="0" shadow="0">
            <root>
                <mxCell id="0"/>
                <mxCell id="1" parent="0"/>
                <mxCell id="2" value="" style="swimlane;startSize=0;" vertex="1" parent="1">
                    <mxGeometry x="40" y="20" width="680" height="420" as="geometry"/>
                </mxCell>
                <mxCell id="6" value="" style="rounded=1;whiteSpace=wrap;html=1;" vertex="1" parent="2">
                    <mxGeometry x="40" y="60" width="120" height="160" as="geometry"/>
                </mxCell>
                <mxCell id="11" value="-------------------------" style="text;html=1;strokeColor=none;fillColor=none;align=center;verticalAlign=middle;whiteSpace=wrap;rounded=0;fontSize=11;" vertex="1" parent="2">
                    <mxGeometry x="50" y="180" width="100" height="30" as="geometry"/>
                </mxCell>
                <mxCell id="13" value="-------------------------" style="text;html=1;strokeColor=none;fillColor=none;align=center;verticalAlign=middle;whiteSpace=wrap;rounded=0;fontSize=11;" vertex="1" parent="2">
                    <mxGeometry x="50" y="190" width="100" height="30" as="geometry"/>
                </mxCell>
                <mxCell id="14" value="-----------" style="text;html=1;strokeColor=none;fillColor=none;align=left;verticalAlign=middle;whiteSpace=wrap;rounded=0;fontSize=11;" vertex="1" parent="2">
                    <mxGeometry x="50" y="171" width="100" height="30" as="geometry"/>
                </mxCell>
                <mxCell id="15" value="" style="rounded=1;whiteSpace=wrap;html=1;" vertex="1" parent="2">
                    <mxGeometry x="200" y="60" width="120" height="160" as="geometry"/>
                </mxCell>
                <mxCell id="16" value="-------------------------" style="text;html=1;strokeColor=none;fillColor=none;align=center;verticalAlign=middle;whiteSpace=wrap;rounded=0;fontSize=11;" vertex="1" parent="2">
                    <mxGeometry x="210" y="180" width="100" height="30" as="geometry"/>
                </mxCell>
                <mxCell id="17" value="-------------------------" style="text;html=1;strokeColor=none;fillColor=none;align=center;verticalAlign=middle;whiteSpace=wrap;rounded=0;fontSize=11;" vertex="1" parent="2">
                    <mxGeometry x="210" y="190" width="100" height="30" as="geometry"/>
                </mxCell>
                <mxCell id="18" value="-----------" style="text;html=1;strokeColor=none;fillColor=none;align=left;verticalAlign=middle;whiteSpace=wrap;rounded=0;fontSize=11;" vertex="1" parent="2">
                    <mxGeometry x="210" y="171" width="100" height="30" as="geometry"/>
                </mxCell>
                <mxCell id="19" value="" style="rounded=1;whiteSpace=wrap;html=1;" vertex="1" parent="2">
                    <mxGeometry x="360" y="60" width="120" height="160" as="geometry"/>
                </mxCell>
                <mxCell id="20" value="-------------------------" style="text;html=1;strokeColor=none;fillColor=none;align=center;verticalAlign=middle;whiteSpace=wrap;rounded=0;fontSize=11;" vertex="1" parent="2">
                    <mxGeometry x="370" y="180" width="100" height="30" as="geometry"/>
                </mxCell>
                <mxCell id="21" value="-------------------------" style="text;html=1;strokeColor=none;fillColor=none;align=center;verticalAlign=middle;whiteSpace=wrap;rounded=0;fontSize=11;" vertex="1" parent="2">
                    <mxGeometry x="370" y="190" width="100" height="30" as="geometry"/>
                </mxCell>
                <mxCell id="22" value="-----------" style="text;html=1;strokeColor=none;fillColor=none;align=left;verticalAlign=middle;whiteSpace=wrap;rounded=0;fontSize=11;" vertex="1" parent="2">
                    <mxGeometry x="370" y="171" width="100" height="30" as="geometry"/>
                </mxCell>
                <mxCell id="23" value="" style="rounded=1;whiteSpace=wrap;html=1;" vertex="1" parent="2">
                    <mxGeometry x="520" y="60" width="120" height="160" as="geometry"/>
                </mxCell>
                <mxCell id="24" value="-------------------------" style="text;html=1;strokeColor=none;fillColor=none;align=center;verticalAlign=middle;whiteSpace=wrap;rounded=0;fontSize=11;" vertex="1" parent="2">
                    <mxGeometry x="530" y="180" width="100" height="30" as="geometry"/>
                </mxCell>
                <mxCell id="25" value="-------------------------" style="text;html=1;strokeColor=none;fillColor=none;align=center;verticalAlign=middle;whiteSpace=wrap;rounded=0;fontSize=11;" vertex="1" parent="2">
                    <mxGeometry x="530" y="190" width="100" height="30" as="geometry"/>
                </mxCell>
                <mxCell id="26" value="-----------" style="text;html=1;strokeColor=none;fillColor=none;align=left;verticalAlign=middle;whiteSpace=wrap;rounded=0;fontSize=11;" vertex="1" parent="2">
                    <mxGeometry x="530" y="171" width="100" height="30" as="geometry"/>
                </mxCell>
                <mxCell id="31" value="" style="rounded=1;whiteSpace=wrap;html=1;" vertex="1" parent="2">
                    <mxGeometry x="40" y="260" width="120" height="160" as="geometry"/>
                </mxCell>
                <mxCell id="32" value="-------------------------" style="text;html=1;strokeColor=none;fillColor=none;align=center;verticalAlign=middle;whiteSpace=wrap;rounded=0;fontSize=11;" vertex="1" parent="2">
                    <mxGeometry x="50" y="380" width="100" height="30" as="geometry"/>
                </mxCell>
                <mxCell id="33" value="-------------------------" style="text;html=1;strokeColor=none;fillColor=none;align=center;verticalAlign=middle;whiteSpace=wrap;rounded=0;fontSize=11;" vertex="1" parent="2">
                    <mxGeometry x="50" y="390" width="100" height="30" as="geometry"/>
                </mxCell>
                <mxCell id="34" value="-----------" style="text;html=1;strokeColor=none;fillColor=none;align=left;verticalAlign=middle;whiteSpace=wrap;rounded=0;fontSize=11;" vertex="1" parent="2">
                    <mxGeometry x="50" y="371" width="100" height="30" as="geometry"/>
                </mxCell>
                <mxCell id="35" value="" style="rounded=1;whiteSpace=wrap;html=1;" vertex="1" parent="2">
                    <mxGeometry x="200" y="260" width="120" height="160" as="geometry"/>
                </mxCell>
                <mxCell id="36" value="-------------------------" style="text;html=1;strokeColor=none;fillColor=none;align=center;verticalAlign=middle;whiteSpace=wrap;rounded=0;fontSize=11;" vertex="1" parent="2">
                    <mxGeometry x="210" y="380" width="100" height="30" as="geometry"/>
                </mxCell>
                <mxCell id="37" value="-------------------------" style="text;html=1;strokeColor=none;fillColor=none;align=center;verticalAlign=middle;whiteSpace=wrap;rounded=0;fontSize=11;" vertex="1" parent="2">
                    <mxGeometry x="210" y="390" width="100" height="30" as="geometry"/>
                </mxCell>
                <mxCell id="38" value="-----------" style="text;html=1;strokeColor=none;fillColor=none;align=left;verticalAlign=middle;whiteSpace=wrap;rounded=0;fontSize=11;" vertex="1" parent="2">
                    <mxGeometry x="210" y="371" width="100" height="30" as="geometry"/>
                </mxCell>
                <mxCell id="39" value="" style="rounded=1;whiteSpace=wrap;html=1;" vertex="1" parent="2">
                    <mxGeometry x="360" y="260" width="120" height="160" as="geometry"/>
                </mxCell>
                <mxCell id="40" value="-------------------------" style="text;html=1;strokeColor=none;fillColor=none;align=center;verticalAlign=middle;whiteSpace=wrap;rounded=0;fontSize=11;" vertex="1" parent="2">
                    <mxGeometry x="370" y="380" width="100" height="30" as="geometry"/>
                </mxCell>
                <mxCell id="41" value="-------------------------" style="text;html=1;strokeColor=none;fillColor=none;align=center;verticalAlign=middle;whiteSpace=wrap;rounded=0;fontSize=11;" vertex="1" parent="2">
                    <mxGeometry x="370" y="390" width="100" height="30" as="geometry"/>
                </mxCell>
                <mxCell id="42" value="-----------" style="text;html=1;strokeColor=none;fillColor=none;align=left;verticalAlign=middle;whiteSpace=wrap;rounded=0;fontSize=11;" vertex="1" parent="2">
                    <mxGeometry x="370" y="371" width="100" height="30" as="geometry"/>
                </mxCell>
                <mxCell id="43" value="" style="rounded=1;whiteSpace=wrap;html=1;" vertex="1" parent="2">
                    <mxGeometry x="520" y="260" width="120" height="160" as="geometry"/>
                </mxCell>
                <mxCell id="44" value="-------------------------" style="text;html=1;strokeColor=none;fillColor=none;align=center;verticalAlign=middle;whiteSpace=wrap;rounded=0;fontSize=11;" vertex="1" parent="2">
                    <mxGeometry x="530" y="380" width="100" height="30" as="geometry"/>
                </mxCell>
                <mxCell id="45" value="-------------------------" style="text;html=1;strokeColor=none;fillColor=none;align=center;verticalAlign=middle;whiteSpace=wrap;rounded=0;fontSize=11;" vertex="1" parent="2">
                    <mxGeometry x="530" y="390" width="100" height="30" as="geometry"/>
                </mxCell>
                <mxCell id="46" value="-----------" style="text;html=1;strokeColor=none;fillColor=none;align=left;verticalAlign=middle;whiteSpace=wrap;rounded=0;fontSize=11;" vertex="1" parent="2">
                    <mxGeometry x="530" y="371" width="100" height="30" as="geometry"/>
                </mxCell>
                <mxCell id="3" value="container extends layout" style="text;html=1;align=center;verticalAlign=middle;resizable=0;points=[];autosize=1;strokeColor=none;fillColor=none;" vertex="1" parent="1">
                    <mxGeometry x="285" y="30" width="150" height="20" as="geometry"/>
                </mxCell>
                <mxCell id="47" value="" style="endArrow=classic;html=1;fontSize=11;entryX=0;entryY=0.25;entryDx=0;entryDy=0;" edge="1" parent="1" target="48">
                    <mxGeometry width="50" height="50" relative="1" as="geometry">
                        <mxPoint x="650" y="100" as="sourcePoint"/>
                        <mxPoint x="810" y="60" as="targetPoint"/>
                    </mxGeometry>
                </mxCell>
                <mxCell id="48" value="" style="rounded=1;whiteSpace=wrap;html=1;fontSize=11;fillColor=#FFFFFF;" vertex="1" parent="1">
                    <mxGeometry x="880" y="40" width="180" height="250" as="geometry"/>
                </mxCell>
                <mxCell id="49" value="" style="endArrow=none;html=1;fontSize=11;entryX=1;entryY=0.75;entryDx=0;entryDy=0;strokeColor=#000000;exitX=0;exitY=0.75;exitDx=0;exitDy=0;" edge="1" parent="1" source="48" target="48">
                    <mxGeometry width="50" height="50" relative="1" as="geometry">
                        <mxPoint x="840" y="140" as="sourcePoint"/>
                        <mxPoint x="890" y="90" as="targetPoint"/>
                    </mxGeometry>
                </mxCell>
                <mxCell id="50" value="&lt;font style=&quot;font-size: 13px&quot; color=&quot;#000000&quot;&gt;&lt;b&gt;Tittle&lt;/b&gt;&lt;/font&gt;" style="text;html=1;strokeColor=none;fillColor=none;align=left;verticalAlign=middle;whiteSpace=wrap;rounded=0;fontSize=11;" vertex="1" parent="1">
                    <mxGeometry x="890" y="225" width="170" height="30" as="geometry"/>
                </mxCell>
                <mxCell id="51" value="&lt;font style=&quot;font-size: 13px&quot; color=&quot;#000000&quot;&gt;&lt;b&gt;image&lt;/b&gt;&lt;/font&gt;" style="text;html=1;strokeColor=none;fillColor=none;align=center;verticalAlign=middle;whiteSpace=wrap;rounded=0;fontSize=11;" vertex="1" parent="1">
                    <mxGeometry x="880" y="120" width="180" height="30" as="geometry"/>
                </mxCell>
                <mxCell id="52" value="author&amp;nbsp; &amp;nbsp; &amp;nbsp; &amp;nbsp; &amp;nbsp; &amp;nbsp; &amp;nbsp; &amp;nbsp; genre" style="text;html=1;strokeColor=none;fillColor=none;align=center;verticalAlign=middle;whiteSpace=wrap;rounded=0;fontSize=13;fontColor=#000000;" vertex="1" parent="1">
                    <mxGeometry x="879" y="241" width="160" height="30" as="geometry"/>
                </mxCell>
                <mxCell id="54" value="&lt;font style=&quot;font-size: 13px&quot; color=&quot;#000000&quot;&gt;&lt;b&gt;0.3156 USD&lt;/b&gt;&lt;/font&gt;" style="text;html=1;strokeColor=none;fillColor=none;align=center;verticalAlign=middle;whiteSpace=wrap;rounded=0;fontSize=11;" vertex="1" parent="1">
                    <mxGeometry x="880" y="261" width="170" height="30" as="geometry"/>
                </mxCell>
            </root>
        </mxGraphModel>
    </diagram>
</mxfile>